<svg width="24" height="24" viewBox="0 0 24 24" fill="none" xmlns="http://www.w3.org/2000/svg">
<g clip-path="url(#clip0_3307_1644)">
<path d="M5.08008 12H1.26074" stroke="white" stroke-width="1.5" stroke-linecap="round" stroke-linejoin="round"/>
<path d="M22.7383 12H10.0059" stroke="white" stroke-width="1.5" stroke-linecap="round" stroke-linejoin="round"/>
<path d="M13.9941 20.1172H1.26074" stroke="white" stroke-width="1.5" stroke-linecap="round" stroke-linejoin="round"/>
<path d="M22.7383 20.1172H18.9199" stroke="white" stroke-width="1.5" stroke-linecap="round" stroke-linejoin="round"/>
<path d="M13.9941 4.02344H1.26074" stroke="white" stroke-width="1.5" stroke-linecap="round" stroke-linejoin="round"/>
<path d="M22.7383 4.02344H18.9199" stroke="white" stroke-width="1.5" stroke-linecap="round" stroke-linejoin="round"/>
<path d="M5.07996 12.002C5.07996 12.3254 5.14366 12.6457 5.26744 12.9446C5.39122 13.2434 5.57264 13.5149 5.80135 13.7436C6.03006 13.9723 6.30158 14.1537 6.60041 14.2775C6.89923 14.4013 7.21951 14.465 7.54296 14.465C7.8664 14.465 8.18668 14.4013 8.48551 14.2775C8.78433 14.1537 9.05585 13.9723 9.28456 13.7436C9.51327 13.5149 9.69469 13.2434 9.81847 12.9446C9.94225 12.6457 10.006 12.3254 10.006 12.002C10.006 11.6786 9.94225 11.3583 9.81847 11.0595C9.69469 10.7606 9.51327 10.4891 9.28456 10.2604C9.05585 10.0317 8.78433 9.85026 8.48551 9.72649C8.18668 9.60271 7.8664 9.539 7.54296 9.539C7.21951 9.539 6.89923 9.60271 6.60041 9.72649C6.30158 9.85026 6.03006 10.0317 5.80135 10.2604C5.57264 10.4891 5.39122 10.7606 5.26744 11.0595C5.14366 11.3583 5.07996 11.6786 5.07996 12.002Z" stroke="white" stroke-width="1.5"/>
<path d="M13.994 20.119C13.994 20.7722 14.2535 21.3987 14.7154 21.8606C15.1773 22.3225 15.8038 22.582 16.457 22.582C17.1102 22.582 17.7367 22.3225 18.1986 21.8606C18.6605 21.3987 18.92 20.7722 18.92 20.119C18.92 19.4658 18.6605 18.8393 18.1986 18.3774C17.7367 17.9155 17.1102 17.656 16.457 17.656C15.8038 17.656 15.1773 17.9155 14.7154 18.3774C14.2535 18.8393 13.994 19.4658 13.994 20.119Z" stroke="white" stroke-width="1.5"/>
<path d="M13.994 3.885C13.994 4.53823 14.2535 5.1647 14.7154 5.6266C15.1773 6.0885 15.8038 6.348 16.457 6.348C17.1102 6.348 17.7367 6.0885 18.1986 5.6266C18.6605 5.1647 18.92 4.53823 18.92 3.885C18.92 3.23177 18.6605 2.6053 18.1986 2.14339C17.7367 1.68149 17.1102 1.422 16.457 1.422C15.8038 1.422 15.1773 1.68149 14.7154 2.14339C14.2535 2.6053 13.994 3.23177 13.994 3.885Z" stroke="white" stroke-width="1.5"/>
</g>
<defs>
<clipPath id="clip0_3307_1644">
<rect width="24" height="24" fill="white"/>
</clipPath>
</defs>
</svg>
